HIERARCHY
ROOT hip
{
  OFFSET 0 0 0
  CHANNELS 6 Xposition Yposition Zposition Zrotation Yrotation Xrotation
  JOINT abdomen
  {
    OFFSET 0 20.6881 -0.73152
    CHANNELS 3 Zrotation Xrotation Yrotation
    JOINT chest
    {
      OFFSET 0 11.7043 -0.48768
      CHANNELS 3 Zrotation Xrotation Yrotation
      JOINT neck
      {
        OFFSET 0 22.1894 -2.19456
        CHANNELS 3 Zrotation Xrotation Yrotation
        JOINT head
        {
          OFFSET -0.24384 7.07133 1.2192
          CHANNELS 3 Zrotation Xrotation Yrotation
          JOINT leftEye
          {
            OFFSET 4.14528 8.04674 8.04672
            CHANNELS 3 Zrotation Xrotation Yrotation
            End Site
            {
              OFFSET 1 0 0
            }
          }
          JOINT rightEye
          {
            OFFSET -3.6576 8.04674 8.04672
            CHANNELS 3 Zrotation Xrotation Yrotation
            End Site
            {
              OFFSET 1 0 0
            }
          }
        }
      }
      JOINT rCollar
      {
        OFFSET -2.68224 19.2634 -4.8768
        CHANNELS 3 Zrotation Xrotation Yrotation
        JOINT rShldr
        {
          OFFSET -8.77824 -1.95073 1.46304
          CHANNELS 3 Zrotation Xrotation Yrotation
          JOINT rForeArm
          {
            OFFSET -28.1742 -1.7115 0.48768
            CHANNELS 3 Zrotation Xrotation Yrotation
            JOINT rHand
            {
              OFFSET -22.5879 0.773209 7.07136
              CHANNELS 3 Zrotation Xrotation Yrotation
              JOINT rThumb1
              {
                OFFSET -1.2192 -0.487915 3.41376
                CHANNELS 3 Zrotation Xrotation Yrotation
                JOINT rThumb2
                {
                  OFFSET -3.37035 -0.52449 3.41376
                  CHANNELS 3 Zrotation Xrotation Yrotation
                  End Site
                  {
                    OFFSET -1.78271 -1.18214 1.43049
                  }
                }
              }
              JOINT rIndex1
              {
                OFFSET -7.75947 0.938293 5.60832
                CHANNELS 3 Zrotation Xrotation Yrotation
                JOINT rIndex2
                {
                  OFFSET -2.54057 -0.884171 1.56538
                  CHANNELS 3 Zrotation Xrotation Yrotation
                  End Site
                  {
                    OFFSET -1.62519 -0.234802 1.16502
                  }
                }
              }
              JOINT rMid1
              {
                OFFSET -8.24714 1.18213 3.41376
                CHANNELS 3 Zrotation Xrotation Yrotation
                JOINT rMid2
                {
                  OFFSET -3.10165 -0.590103 1.0647
                  CHANNELS 3 Zrotation Xrotation Yrotation
                  End Site
                  {
                    OFFSET -2.48547 -0.328903 0.83742
                  }
                }
              }
              JOINT rRing1
              {
                OFFSET -8.82822 0.546677 1.51678
                CHANNELS 3 Zrotation Xrotation Yrotation
                JOINT rRing2
                {
                  OFFSET -2.60934 -0.819778 -0.0198488
                  CHANNELS 3 Zrotation Xrotation Yrotation
                  End Site
                  {
                    OFFSET -2.33842 -0.294052 0.168128
                  }
                }
              }
              JOINT rPinky1
              {
                OFFSET -8.27202 -0.0477905 -0.4584
                CHANNELS 3 Zrotation Xrotation Yrotation
                JOINT rPinky2
                {
                  OFFSET -1.82734 -0.647385 -0.700984
                  CHANNELS 3 Zrotation Xrotation Yrotation
                  End Site
                  {
                    OFFSET -1.69225 -0.51767 -0.607171
                  }
                }
              }
            }
          }
        }
      }
      JOINT lCollar
      {
        OFFSET 2.68224 19.2634 -4.8768
        CHANNELS 3 Zrotation Xrotation Yrotation
        JOINT lShldr
        {
          OFFSET 8.77824 -1.95073 1.46304
          CHANNELS 3 Zrotation Xrotation Yrotation
          JOINT lForeArm
          {
            OFFSET 28.1742 -1.7115 0.48768
            CHANNELS 3 Zrotation Xrotation Yrotation
            JOINT lHand
            {
              OFFSET 22.5879 0.773209 7.07136
              CHANNELS 3 Zrotation Xrotation Yrotation
              JOINT lThumb1
              {
                OFFSET 1.2192 -0.487915 3.41376
                CHANNELS 3 Zrotation Xrotation Yrotation
                JOINT lThumb2
                {
                  OFFSET 3.37035 -0.52449 3.41376
                  CHANNELS 3 Zrotation Xrotation Yrotation
                  End Site
                  {
                    OFFSET 1.78271 -1.18214 1.43049
                  }
                }
              }
              JOINT lIndex1
              {
                OFFSET 7.75947 0.938293 5.60832
                CHANNELS 3 Zrotation Xrotation Yrotation
                JOINT lIndex2
                {
                  OFFSET 2.54057 -0.884171 1.56538
                  CHANNELS 3 Zrotation Xrotation Yrotation
                  End Site
                  {
                    OFFSET 1.62519 -0.234802 1.16502
                  }
                }
              }
              JOINT lMid1
              {
                OFFSET 8.24714 1.18213 3.41376
                CHANNELS 3 Zrotation Xrotation Yrotation
                JOINT lMid2
                {
                  OFFSET 3.10165 -0.590103 1.0647
                  CHANNELS 3 Zrotation Xrotation Yrotation
                  End Site
                  {
                    OFFSET 2.48547 -0.328903 0.83742
                  }
                }
              }
              JOINT lRing1
              {
                OFFSET 8.82822 0.546677 1.51678
                CHANNELS 3 Zrotation Xrotation Yrotation
                JOINT lRing2
                {
                  OFFSET 2.60934 -0.819778 -0.0198488
                  CHANNELS 3 Zrotation Xrotation Yrotation
                  End Site
                  {
                    OFFSET 2.33842 -0.294052 0.168128
                  }
                }
              }
              JOINT lPinky1
              {
                OFFSET 8.27202 -0.0477905 -0.4584
                CHANNELS 3 Zrotation Xrotation Yrotation
                JOINT lPinky2
                {
                  OFFSET 1.82734 -0.647385 -0.700984
                  CHANNELS 3 Zrotation Xrotation Yrotation
                  End Site
                  {
                    OFFSET 1.69225 -0.51767 -0.607171
                  }
                }
              }
            }
          }
        }
      }
    }
  }
  JOINT rButtock
  {
    OFFSET -8.77824 4.35084 1.2192
    CHANNELS 3 Zrotation Xrotation Yrotation
    JOINT rThigh
    {
      OFFSET 0 -1.70687 -2.19456
      CHANNELS 3 Zrotation Xrotation Yrotation
      JOINT rShin
      {
        OFFSET 0 -36.8199 0.73152
        CHANNELS 3 Zrotation Xrotation Yrotation
        JOINT rFoot
        {
          OFFSET 0.73152 -45.1104 -5.12064
          CHANNELS 3 Zrotation Xrotation Yrotation
          End Site
          {
            OFFSET -1.1221 -3.69964 12.103
          }
        }
      }
    }
  }
  JOINT lButtock
  {
    OFFSET 8.77824 4.35084 1.2192
    CHANNELS 3 Zrotation Xrotation Yrotation
    JOINT lThigh
    {
      OFFSET 0 -1.70687 -2.19456
      CHANNELS 3 Zrotation Xrotation Yrotation
      JOINT lShin
      {
        OFFSET 0 -36.8199 0.73152
        CHANNELS 3 Zrotation Xrotation Yrotation
        JOINT lFoot
        {
          OFFSET -0.73152 -45.1104 -5.12064
          CHANNELS 3 Zrotation Xrotation Yrotation
          End Site
          {
            OFFSET 1.1221 -3.69964 12.103
          }
        }
      }
    }
  }
}
MOTION
Frames: 4
Frame Time: 0.00833333
-0.919424 82.85210000000001 3.71507 -117.848 87.3251 -106.481 0.268154 -3.79712 8.62837 -2.06129 0.244864 2.36001 5.174200000000001 10.8082 1.9217900000000003 32.4971 39.351 3.38987 -0.0 0.0 0.0 -0.0 0.0 0.0 6.54694e-14 3.78378e-13 1.50117e-14 54.9657 49.712900000000005 27.32 18.273800000000005 -54.5684 -118.257 -0.0006898920000000001 0.7499940000000002 0.105411 6.973950000000002e-10 4.1257e-10 5.338150000000001e-10 1.19873e-09 7.11503e-10 9.236770000000001e-10 6.974e-10 4.12569e-10 5.3381e-10 7.73091 5.474880000000001 0.4173140000000001 6.97393e-10 4.1257e-10 5.33806e-10 2.9055400000000002 0.9651830000000001 0.102902 6.973950000000002e-10 4.1257e-10 5.338120000000001e-10 10.2786 0.731801 0.0259123 6.97393e-10 4.12572e-10 5.33823e-10 2.22167 -0.7334870000000001 -0.20892 6.54222e-14 3.7837200000000003e-13 1.48184e-14 -39.677 18.7717 -62.2428 17.7834 -54.8788 -119.358 4.928670000000001 -51.52770000000001 10.1886 -7.20949e-10 7.340350000000001e-10 -1.67747e-09 -1.17082e-09 1.2504e-09 -2.92666e-09 -7.20955e-10 7.34034e-10 -1.67746e-09 -7.73091 5.474880000000001 -0.4173140000000001 -7.20948e-10 7.34036e-10 -1.67747e-09 -2.9055400000000002 0.9651830000000001 -0.102902 -7.20951e-10 7.34037e-10 -1.67747e-09 -10.2786 0.731801 -0.0259123 -7.20949e-10 7.34037e-10 -1.67747e-09 -2.22167 -0.7334870000000001 0.20892 -2.03217e-16 0.0 -3.88251e-19 -4.25736 -10.744400000000002 14.6749 0.0021102 2.10039 0.136683 -2.22469 0.532719 -21.4707 2.03217e-16 0.0 3.88251e-19 19.4227 -8.02313 0.190358 -0.0187702 9.26467 -0.266932 -0.07945240000000002 -1.24491 0.0283789 
-0.9225412258911819 82.85929962476548 3.7321239887429645 -119.65899699812383 87.14993399624765 -108.237295684803 0.5185595808630393 -3.9274222251407127 9.150977909943713 -2.3775989718574104 0.05415054472795497 2.5053596622889303 5.88926582739212 11.319333658536584 2.838846660412758 31.949536772983112 35.55144994371482 5.858656667917447 -0.0 0.0 0.0 -0.0 0.0 0.0 1.0314003125703564e-13 5.555337500938086e-13 -8.60519774859287e-15 56.64782757973733 49.555557223264536 25.488835534709192 18.23485823639775 -54.59351114446529 -118.34510393996248 -0.0003471671767354596 0.5347964754221388 0.07516288690431519 8.152201088180112e-10 7.100307317073169e-10 4.935296990619137e-10 1.404622315196998e-09 1.2264541951219513e-09 8.538786484052532e-10 8.152231088180112e-10 7.100316315196998e-10 4.93532398499062e-10 7.73091 5.47488 0.41731399999999996 8.152191088180112e-10 7.100298318949342e-10 4.935325988742964e-10 2.90554 0.9651829999999999 0.102902 8.152201088180112e-10 7.100288318949343e-10 4.935336990619137e-10 10.2786 0.731801 0.0259123 8.15211008630394e-10 7.100298318949342e-10 4.935437992495309e-10 2.22167 -0.7334869999999999 -0.20891999999999997 1.0310565681050657e-13 5.555364495309568e-13 -8.829151857410881e-15 -41.33442562851782 20.300969343339588 -61.58223879924953 16.986665140712944 -55.35445969981238 -121.10922363977487 4.8629882101313315 -51.30410221388368 10.105291782363977 -4.2310003752345215e-10 5.195564382739212e-10 -1.3876395234521573e-09 -6.708020172607879e-10 8.897265035647279e-10 -2.412905144465291e-09 -4.231042378986866e-10 5.195563380863039e-10 -1.3876305253283302e-09 -7.73091 5.47488 -0.41731399999999996 -4.2310283714821765e-10 5.195576386491557e-10 -1.38764052532833e-09 -2.90554 0.9651829999999999 -0.102902 -4.2310793733583486e-10 5.195563380863039e-10 -1.3876305253283302e-09 -10.2786 0.731801 -0.0259123 -4.2309903752345214e-10 5.195582378986867e-10 -1.3876305253283302e-09 -2.22167 -0.7334869999999999 0.20891999999999997 -2.03217e-16 0.0 -3.8825099999999993e-19 -4.203008315196998 -10.606885028142589 14.532485778611633 0.0014354930956848029 1.7966848968105067 0.13102171106941837 -2.173153598499062 0.6736101317073171 -21.437159549718576 2.03217e-16 0.0 3.8825099999999993e-19 19.424049906191367 -8.011036424015009 0.18998031744840524 -0.0185394869043152 9.243712772983113 -0.26449857598499066 -0.07555039287054409 -1.2357993545966228 0.027835755084427767 
-0.8839071163227016 82.86855947467167 3.7438937054409007 -121.47037804878047 87.01959080675421 -110.11076829268293 0.4917495844277673 -3.9759860225140713 9.117081641651032 -2.2759459474671666 0.048473549530956846 2.495538424015009 5.76637487804878 11.486192589118199 3.115255712945591 31.93550787992495 32.411155909943716 6.596502908067542 -0.0 0.0 0.0 -0.0 0.0 0.0 -5.571400581613508e-14 -3.829042101313321e-13 -5.4305961726078803e-14 56.79814202626642 49.51595196998123 24.99388499061914 18.208182551594746 -54.610668386491554 -118.40549437148218 -0.00033643994840525327 0.5235744812382739 0.07358568592870543 1.869257861163227e-10 1.2781956191369606e-10 -4.177922185741088e-11 3.253231969981238e-10 2.2159883208255158e-10 -7.284509437148217e-11 1.869297861163227e-10 1.278096622889306e-10 -4.1801110318949336e-11 7.73091 5.47488 0.41731399999999996 1.8692388649155722e-10 1.2782146153846156e-10 -4.1775991744840524e-11 2.9055399999999993 0.9651829999999999 0.10290199999999998 1.8693258536585364e-10 1.27820361163227e-10 -4.1778381707317075e-11 10.2786 0.7318009999999999 0.0259123 1.8691868574108817e-10 1.27820361163227e-10 -4.177595159474672e-11 2.22167 -0.733487 -0.20892 -5.5780541838649155e-14 -3.8290900938086303e-13 -5.455574652908067e-14 -43.22509577861163 20.607806285178235 -60.965664727954966 16.017104409005626 -55.88853048780487 -123.18584240150093 4.263487429643527 -49.0639274859287 9.325247288930582 -2.2588530487804877e-10 1.2619747926829268e-11 8.274143433395872e-11 -3.922184530956848e-10 2.3672906378986867e-11 1.319816247654784e-10 -2.2589320450281427e-10 1.2623259671669795e-11 8.276323358348967e-11 -7.73091 5.47488 -0.41731399999999996 -2.2588330487804878e-10 1.2620508818011257e-11 8.274423358348967e-11 -2.9055399999999993 0.9651829999999999 -0.10290199999999998 -2.2588730487804878e-10 1.262025796435272e-11 8.274353470919324e-11 -10.2786 0.7318009999999999 -0.0259123 -2.2587540525328333e-10 1.2620599155722328e-11 8.273563508442776e-11 -2.22167 -0.733487 0.20892 -2.03217e-16 0.0 -3.88251e-19 -4.137610703564728 -10.4086830206379 14.422126454033771 0.002220286181988743 1.6187625891181987 0.12876906285178236 -2.199525497185741 0.5821669990619136 -21.386212664165104 2.03217e-16 0.0 3.88251e-19 19.42313011257036 -8.008935872420263 0.18992479549718574 -0.018240272701688553 9.235061191369606 -0.2617539981238274 -0.07261413245778611 -1.22893234521576 0.02742630909943715 
-0.8522410727954972 82.87176926829268 3.752049696060037 -123.08065741088178 86.9927884052533 -111.75015459662288 0.17425072570356473 -4.155576393996247 8.82154862664165 -1.9963831257035647 0.08976826225140713 2.4139978011257037 5.299364517823641 11.393196135084427 2.8891787467166976 32.63831347091932 30.07835463414634 6.055521557223265 -0.0 0.0 0.0 -0.0 0.0 0.0 4.579975684803002e-15 2.605074918574109e-13 -2.3987234258911817e-14 56.60770251407129 49.895166566604125 24.959584427767354 18.22437200750469 -54.60031512195122 -118.36911744840525 -0.0005151081287054409 0.6470234712945591 0.09093714731707317 -1.5633117748592872e-10 -1.1118703332082552e-10 -5.043584112570356e-10 -2.6407925290806754e-10 -1.9380704427767352e-10 -8.739871159474671e-10 -1.563331774859287e-10 -1.111844154596623e-10 -5.043614112570356e-10 7.73091 5.47488 0.417314 -1.563341774859287e-10 -1.1118509365853658e-10 -5.043584112570356e-10 2.9055399999999993 0.965183 0.102902 -1.563281774859287e-10 -1.111840433771107e-10 -5.043543106941838e-10 10.2786 0.731801 0.0259123 -1.5633817748592867e-10 -1.1118103332082551e-10 -5.04341210131332e-10 2.22167 -0.733487 -0.20892 4.52853320825516e-15 2.6050253208255153e-13 -2.4105432495309565e-14 -44.61053508442777 20.289012607879922 -60.514831106941834 15.04814821763602 -56.378852157598494 -125.20669681050656 4.129995350844277 -48.522735046904316 9.147738848030018 7.655675636022514e-10 -2.147199444652908e-10 9.046369324577861e-10 1.285082889305816e-09 -3.4575813433395874e-10 1.5961387767354595e-09 7.655630664165102e-10 -2.1471864277673543e-10 9.046533347091932e-10 -7.73091 5.47488 -0.417314 7.655675636022514e-10 -2.1472374333958724e-10 9.046378318949343e-10 -2.9055399999999993 0.965183 -0.102902 7.655584630393996e-10 -2.1472374333958724e-10 9.046414296435271e-10 -10.2786 0.731801 -0.0259123 7.655757647279549e-10 -2.1472374333958724e-10 9.046387313320826e-10 -2.22167 -0.733487 0.20892 -2.03217e-16 0.0 -3.88251e-19 -4.156083455909944 -10.340503452157598 14.35623024390244 0.006423711219512194 1.635229320825516 0.13294887467166977 -2.2876762251407126 0.36612337410881796 -21.427420112570353 2.03217e-16 0.0 3.88251e-19 19.42321005628518 -8.010688664165103 0.18990601688555345 -0.018034009080675425 9.23508034521576 -0.2599943924953096 -0.07324548461538462 -1.2268536923076923 0.027458895309568482 
